<svg
  xmlns="http://www.w3.org/2000/svg"
  xmlns:xlink="http://www.w3.org/1999/xlink"
  xml:space="preserve"
  width="2.57965in"
  height="2.01036in"
  version="1.1"
  style="
    shape-rendering: geometricPrecision;
    text-rendering: geometricPrecision;
    image-rendering: optimizeQuality;
    fill-rule: evenodd;
    clip-rule: evenodd;
  "
  viewBox="0 0 2579.65 2010.36"
>
  <defs>
    <style type="text/css">
      .fil0 {
        fill: black;
      }
    </style>
  </defs>
  <g id="Layer_x0020_1">
    <metadata id="CorelCorpID_0Corel-Layer" />
    <path
      class="fil0"
      d="M113.33 328.88c50.72,-19.25 101.23,-35.75 151.5,-49.63l8.89 -198.11c205.22,-81.17 404.83,-102.65 621.67,-52.7 159.61,36.77 303.13,112.33 398.27,223.05 111.75,-114.27 260.83,-190.24 421.68,-226.32 216.34,-48.52 411.33,-25.22 615.56,55.56l15.71 207.66c39.78,11.84 79.68,25.3 119.71,40.5l113.33 1318.41 -38.55 280.32c-319.7,-50.42 -639.41,-69.86 -959.12,-24.92 -97.39,13.69 -172.33,116.39 -289.91,107.07 -85.28,9.16 -181.76,-90.26 -271.52,-103.74 -327.34,-49.17 -654.68,-30.02 -981.99,21.59l-38.55 -280.32 113.33 -1318.41zm1252.1 -0.57l0 1330.01c227.74,-139.2 525.27,-346.45 950.06,-260.18l-89.55 -1244.14c-189.19,-60.38 -385.95,-57.02 -565.95,5.15 -106.72,35.25 -208.1,95.48 -294.56,169.17zm-114.9 1341.33l0 -1340.7c-97.33,-79.99 -223.32,-145.13 -339.26,-178.08 -179.71,-54.78 -373.74,-61 -526.48,10.85l-54.64 1217.35c515.74,-37.24 683.37,144.09 920.37,290.57zm1103.39 -1284.74l88.14 1164.79c-385.09,-107.91 -601.07,-56.56 -937.13,153.28 293.16,-88.6 557.8,-158.24 956.43,-103.3l-69.22 -1203.54c-12.75,-3.93 -25.49,-7.67 -38.22,-11.23zm-1238.35 1328.11c-337.01,-235.71 -505.93,-264.18 -906.11,-199.96l50.74 -1130.47c-15.52,4.25 -31.07,8.76 -46.64,13.56l-69.23 1203.54c414.14,-33.83 673.49,28.81 971.24,113.34z"
    />
  </g>
</svg>
