<svg
  xmlns="http://www.w3.org/2000/svg"
  id="40-Health_Insurance"
  data-name="40-Health Insurance"
  viewBox="0 0 64 64"
>
  <path
    d="M59.13184,10.00879A95.341,95.341,0,0,1,32.44727,2.10547a1.00109,1.00109,0,0,0-.89454,0A95.341,95.341,0,0,1,4.86816,10.00879,1.00033,1.00033,0,0,0,4,11V32C4,57.56738,31.5752,61.94824,31.85352,61.98926a1.00427,1.00427,0,0,0,.293,0C32.4248,61.94824,60,57.56738,60,32V11A1.00033,1.00033,0,0,0,59.13184,10.00879ZM58,32c0,23.1543-23.67969,27.60742-26,27.9873C29.67969,59.60742,6,55.1543,6,32V11.87109A98.56641,98.56641,0,0,0,32,4.10938a98.56641,98.56641,0,0,0,26,7.76171ZM28,23v5H23a.99943.99943,0,0,0-1,1v6a.99943.99943,0,0,0,1,1h5v5a.99943.99943,0,0,0,1,1h6a.99943.99943,0,0,0,1-1V36h5a.99943.99943,0,0,0,1-1V29a.99943.99943,0,0,0-1-1H36V23a.99943.99943,0,0,0-1-1H29A.99943.99943,0,0,0,28,23Zm2,6V24h4v5a.99943.99943,0,0,0,1,1h5v4H35a.99943.99943,0,0,0-1,1v5H30V35a.99943.99943,0,0,0-1-1H24V30h5A.99943.99943,0,0,0,30,29ZM14,32A18,18,0,1,0,32,14,18.02094,18.02094,0,0,0,14,32Zm34,0A16,16,0,1,1,32,16,16.01833,16.01833,0,0,1,48,32Z"
  />
</svg>
